<?xml version="1.0" encoding="UTF-8" standalone="no"?>
<!DOCTYPE svg PUBLIC "-//W3C//DTD SVG 1.1//EN"
 "http://www.w3.org/Graphics/SVG/1.1/DTD/svg11.dtd">
<!-- Generated by graphviz version 2.43.0 (0)
 -->
<!-- Title: expolit:3&#45;20 Pages: 1 -->
<svg width="715pt" height="564pt"
 viewBox="36.00 14.40 678.89 549.14" xmlns="http://www.w3.org/2000/svg" xmlns:xlink="http://www.w3.org/1999/xlink">
<g id="graph0" class="graph" transform="scale(1 1) rotate(0) translate(40 545.14)">
<title>expolit:3&#45;20</title>
<polygon fill="white" stroke="transparent" points="-4,4 -4,-530.74 638.89,-530.74 638.89,4 -4,4"/>
<text text-anchor="middle" x="317.44" y="-498.74" font-family="arial" font-size="30.00" fill="#0d3b66">expolit:3&#45;20</text>
<!-- 0 -->
<g id="node1" class="node">
<title>0</title>
<path fill="none" stroke="#c6ac4d" d="M202.39,-485.74C202.39,-485.74 168.39,-485.74 168.39,-485.74 162.39,-485.74 156.39,-479.74 156.39,-473.74 156.39,-473.74 156.39,-461.74 156.39,-461.74 156.39,-455.74 162.39,-449.74 168.39,-449.74 168.39,-449.74 202.39,-449.74 202.39,-449.74 208.39,-449.74 214.39,-455.74 214.39,-461.74 214.39,-461.74 214.39,-473.74 214.39,-473.74 214.39,-479.74 208.39,-485.74 202.39,-485.74"/>
<text text-anchor="middle" x="185.39" y="-464.04" font-family="arial" font-size="14.00" fill="#0d3b66">entry:0</text>
</g>
<!-- 1 -->
<g id="node3" class="node">
<title>1</title>
<ellipse fill="none" stroke="#0d3b66" cx="185.39" cy="-395.74" rx="78.79" ry="18"/>
<text text-anchor="middle" x="185.39" y="-392.04" font-family="arial" font-size="14.00" fill="#0d3b66">NORMAL:1@4&#45;7</text>
</g>
<!-- 0&#45;&gt;1 -->
<g id="edge1" class="edge">
<title>0&#45;&gt;1</title>
<path fill="none" stroke="#0d3b65" d="M185.39,-449.44C185.39,-441.72 185.39,-432.45 185.39,-423.85"/>
<polygon fill="#0d3b65" stroke="#0d3b65" points="188.89,-423.84 185.39,-413.84 181.89,-423.84 188.89,-423.84"/>
</g>
<!-- 8 -->
<g id="node2" class="node">
<title>8</title>
<path fill="none" stroke="#c6ac4d" d="M450.39,-36C450.39,-36 420.39,-36 420.39,-36 414.39,-36 408.39,-30 408.39,-24 408.39,-24 408.39,-12 408.39,-12 408.39,-6 414.39,0 420.39,0 420.39,0 450.39,0 450.39,0 456.39,0 462.39,-6 462.39,-12 462.39,-12 462.39,-24 462.39,-24 462.39,-30 456.39,-36 450.39,-36"/>
<text text-anchor="middle" x="435.39" y="-14.3" font-family="arial" font-size="14.00" fill="#0d3b66">exit:8</text>
</g>
<!-- 2 -->
<g id="node4" class="node">
<title>2</title>
<ellipse fill="none" stroke="#0d3b66" cx="185.39" cy="-323.74" rx="83.39" ry="18"/>
<text text-anchor="middle" x="185.39" y="-320.04" font-family="arial" font-size="14.00" fill="#0d3b66">NORMAL:2@9&#45;11</text>
</g>
<!-- 1&#45;&gt;2 -->
<g id="edge2" class="edge">
<title>1&#45;&gt;2</title>
<path fill="none" stroke="#0d3b65" d="M185.39,-377.44C185.39,-369.72 185.39,-360.45 185.39,-351.85"/>
<polygon fill="#0d3b65" stroke="#0d3b65" points="188.89,-351.84 185.39,-341.84 181.89,-351.84 188.89,-351.84"/>
</g>
<!-- 3 -->
<g id="node5" class="node">
<title>3</title>
<ellipse fill="none" stroke="#0d3b66" cx="62.39" cy="-251.74" rx="62.29" ry="18"/>
<text text-anchor="middle" x="62.39" y="-248.04" font-family="arial" font-size="14.00" fill="#0d3b66">LOOP:3@10</text>
</g>
<!-- 2&#45;&gt;3 -->
<g id="edge3" class="edge">
<title>2&#45;&gt;3</title>
<path fill="none" stroke="#0d3b65" d="M131.08,-310.06C106.13,-300.64 80.93,-287.52 65.15,-276.21"/>
<polygon fill="#0d3b65" stroke="#0d3b65" points="67.05,-273.25 57.03,-269.8 62.71,-278.74 67.05,-273.25"/>
</g>
<!-- 4 -->
<g id="node6" class="node">
<title>4</title>
<ellipse fill="none" stroke="#0d3b66" cx="308.39" cy="-251.74" rx="75.29" ry="18"/>
<text text-anchor="middle" x="308.39" y="-248.04" font-family="arial" font-size="14.00" fill="#0d3b66">NORMAL:4@14</text>
</g>
<!-- 2&#45;&gt;4 -->
<g id="edge4" class="edge">
<title>2&#45;&gt;4</title>
<path fill="none" stroke="#0d3b65" d="M213.61,-306.68C230.8,-296.9 252.95,-284.29 271.52,-273.73"/>
<polygon fill="#0d3b65" stroke="#0d3b65" points="273.35,-276.71 280.31,-268.72 269.88,-270.63 273.35,-276.71"/>
</g>
<!-- 5 -->
<g id="node7" class="node">
<title>5</title>
<ellipse fill="none" stroke="#0d3b66" cx="563.39" cy="-251.74" rx="71.49" ry="18"/>
<text text-anchor="middle" x="563.39" y="-248.04" font-family="arial" font-size="14.00" fill="#0d3b66">TEST:5@16&#45;13</text>
</g>
<!-- 2&#45;&gt;5 -->
<g id="edge5" class="edge">
<title>2&#45;&gt;5</title>
<path fill="none" stroke="#0d3b65" d="M246.55,-311.42C315.35,-298.67 426.72,-278.05 497.44,-264.95"/>
<polygon fill="#0d3b65" stroke="#0d3b65" points="498.37,-268.34 507.57,-263.08 497.1,-261.46 498.37,-268.34"/>
</g>
<!-- 3&#45;&gt;2 -->
<g id="edge6" class="edge">
<title>3&#45;&gt;2</title>
<path fill="none" stroke="#0d3b65" d="M110.71,-263.22C137.31,-272.63 165.09,-286.79 182.17,-298.94"/>
<polygon fill="#0d3b65" stroke="#0d3b65" points="180.45,-302.04 190.48,-305.44 184.76,-296.52 180.45,-302.04"/>
</g>
<!-- 6 -->
<g id="node8" class="node">
<title>6</title>
<ellipse fill="none" stroke="#ff0000" cx="435.39" cy="-170.87" rx="96.33" ry="26.74"/>
<text text-anchor="middle" x="435.39" y="-174.67" font-family="arial" font-size="14.00" fill="#ff0000">NORMAL:6@18&#45;19</text>
<text text-anchor="middle" x="435.39" y="-159.67" font-family="arial" font-size="14.00" fill="#ff0000">cp.exec(link);</text>
</g>
<!-- 4&#45;&gt;6 -->
<g id="edge7" class="edge">
<title>4&#45;&gt;6</title>
<path fill="none" stroke="#0d3b65" d="M334.09,-234.78C349.74,-225.07 370.19,-212.36 388.62,-200.92"/>
<polygon fill="#0d3b65" stroke="#0d3b65" points="390.55,-203.84 397.2,-195.59 386.86,-197.89 390.55,-203.84"/>
</g>
<!-- 5&#45;&gt;6 -->
<g id="edge8" class="edge">
<title>5&#45;&gt;6</title>
<path fill="none" stroke="#0d3b65" d="M537.49,-234.78C521.73,-225.07 501.11,-212.36 482.54,-200.92"/>
<polygon fill="#0d3b65" stroke="#0d3b65" points="484.24,-197.86 473.89,-195.59 480.57,-203.82 484.24,-197.86"/>
</g>
<!-- 7 -->
<g id="node9" class="node">
<title>7</title>
<ellipse fill="none" stroke="#0d3b66" cx="435.39" cy="-90" rx="70.69" ry="18"/>
<text text-anchor="middle" x="435.39" y="-86.3" font-family="arial" font-size="14.00" fill="#0d3b66">NORMAL:7@0</text>
</g>
<!-- 6&#45;&gt;7 -->
<g id="edge9" class="edge">
<title>6&#45;&gt;7</title>
<path fill="none" stroke="#0d3b65" d="M435.39,-143.61C435.39,-135.51 435.39,-126.57 435.39,-118.39"/>
<polygon fill="#0d3b65" stroke="#0d3b65" points="438.89,-118.22 435.39,-108.22 431.89,-118.22 438.89,-118.22"/>
</g>
<!-- 7&#45;&gt;8 -->
<g id="edge10" class="edge">
<title>7&#45;&gt;8</title>
<path fill="none" stroke="#0d3b65" d="M435.39,-71.7C435.39,-63.98 435.39,-54.71 435.39,-46.11"/>
<polygon fill="#0d3b65" stroke="#0d3b65" points="438.89,-46.1 435.39,-36.1 431.89,-46.1 438.89,-46.1"/>
</g>
</g>
</svg>
