<?xml version="1.0" encoding="UTF-8" standalone="no"?>
<!DOCTYPE svg PUBLIC "-//W3C//DTD SVG 1.1//EN"
 "http://www.w3.org/Graphics/SVG/1.1/DTD/svg11.dtd">
<!-- Generated by graphviz version 2.43.0 (0)
 -->
<!-- Title: expolit:3&#45;24 Pages: 1 -->
<svg width="713pt" height="564pt"
 viewBox="36.00 14.40 677.24 549.14" xmlns="http://www.w3.org/2000/svg" xmlns:xlink="http://www.w3.org/1999/xlink">
<g id="graph0" class="graph" transform="scale(1 1) rotate(0) translate(40 545.14)">
<title>expolit:3&#45;24</title>
<polygon fill="white" stroke="transparent" points="-4,4 -4,-530.74 637.24,-530.74 637.24,4 -4,4"/>
<text text-anchor="middle" x="316.62" y="-498.74" font-family="arial" font-size="30.00" fill="#0d3b66">expolit:3&#45;24</text>
<!-- 0 -->
<g id="node1" class="node">
<title>0</title>
<path fill="none" stroke="#c6ac4d" d="M200.74,-485.74C200.74,-485.74 166.74,-485.74 166.74,-485.74 160.74,-485.74 154.74,-479.74 154.74,-473.74 154.74,-473.74 154.74,-461.74 154.74,-461.74 154.74,-455.74 160.74,-449.74 166.74,-449.74 166.74,-449.74 200.74,-449.74 200.74,-449.74 206.74,-449.74 212.74,-455.74 212.74,-461.74 212.74,-461.74 212.74,-473.74 212.74,-473.74 212.74,-479.74 206.74,-485.74 200.74,-485.74"/>
<text text-anchor="middle" x="183.74" y="-464.04" font-family="arial" font-size="14.00" fill="#0d3b66">entry:0</text>
</g>
<!-- 1 -->
<g id="node3" class="node">
<title>1</title>
<ellipse fill="none" stroke="#0d3b66" cx="183.74" cy="-395.74" rx="78.79" ry="18"/>
<text text-anchor="middle" x="183.74" y="-392.04" font-family="arial" font-size="14.00" fill="#0d3b66">NORMAL:1@4&#45;8</text>
</g>
<!-- 0&#45;&gt;1 -->
<g id="edge1" class="edge">
<title>0&#45;&gt;1</title>
<path fill="none" stroke="#0d3b65" d="M183.74,-449.44C183.74,-441.72 183.74,-432.45 183.74,-423.85"/>
<polygon fill="#0d3b65" stroke="#0d3b65" points="187.24,-423.84 183.74,-413.84 180.24,-423.84 187.24,-423.84"/>
</g>
<!-- 8 -->
<g id="node2" class="node">
<title>8</title>
<path fill="none" stroke="#c6ac4d" d="M448.74,-36C448.74,-36 418.74,-36 418.74,-36 412.74,-36 406.74,-30 406.74,-24 406.74,-24 406.74,-12 406.74,-12 406.74,-6 412.74,0 418.74,0 418.74,0 448.74,0 448.74,0 454.74,0 460.74,-6 460.74,-12 460.74,-12 460.74,-24 460.74,-24 460.74,-30 454.74,-36 448.74,-36"/>
<text text-anchor="middle" x="433.74" y="-14.3" font-family="arial" font-size="14.00" fill="#0d3b66">exit:8</text>
</g>
<!-- 2 -->
<g id="node4" class="node">
<title>2</title>
<ellipse fill="none" stroke="#0d3b66" cx="183.74" cy="-323.74" rx="88.28" ry="18"/>
<text text-anchor="middle" x="183.74" y="-320.04" font-family="arial" font-size="14.00" fill="#0d3b66">NORMAL:2@10&#45;12</text>
</g>
<!-- 1&#45;&gt;2 -->
<g id="edge2" class="edge">
<title>1&#45;&gt;2</title>
<path fill="none" stroke="#0d3b65" d="M183.74,-377.44C183.74,-369.72 183.74,-360.45 183.74,-351.85"/>
<polygon fill="#0d3b65" stroke="#0d3b65" points="187.24,-351.84 183.74,-341.84 180.24,-351.84 187.24,-351.84"/>
</g>
<!-- 3 -->
<g id="node5" class="node">
<title>3</title>
<ellipse fill="none" stroke="#0d3b66" cx="61.74" cy="-251.74" rx="61.99" ry="18"/>
<text text-anchor="middle" x="61.74" y="-248.04" font-family="arial" font-size="14.00" fill="#0d3b66">LOOP:3@11</text>
</g>
<!-- 2&#45;&gt;3 -->
<g id="edge3" class="edge">
<title>2&#45;&gt;3</title>
<path fill="none" stroke="#0d3b65" d="M128.33,-309.57C103.88,-300.17 79.4,-287.27 64.06,-276.13"/>
<polygon fill="#0d3b65" stroke="#0d3b65" points="66.16,-273.33 56.16,-269.82 61.79,-278.8 66.16,-273.33"/>
</g>
<!-- 4 -->
<g id="node6" class="node">
<title>4</title>
<ellipse fill="none" stroke="#0d3b66" cx="306.74" cy="-251.74" rx="75.29" ry="18"/>
<text text-anchor="middle" x="306.74" y="-248.04" font-family="arial" font-size="14.00" fill="#0d3b66">NORMAL:4@15</text>
</g>
<!-- 2&#45;&gt;4 -->
<g id="edge4" class="edge">
<title>2&#45;&gt;4</title>
<path fill="none" stroke="#0d3b65" d="M211.96,-306.68C229.15,-296.9 251.3,-284.29 269.87,-273.73"/>
<polygon fill="#0d3b65" stroke="#0d3b65" points="271.7,-276.71 278.66,-268.72 268.23,-270.63 271.7,-276.71"/>
</g>
<!-- 5 -->
<g id="node7" class="node">
<title>5</title>
<ellipse fill="none" stroke="#0d3b66" cx="561.74" cy="-251.74" rx="71.49" ry="18"/>
<text text-anchor="middle" x="561.74" y="-248.04" font-family="arial" font-size="14.00" fill="#0d3b66">TEST:5@17&#45;14</text>
</g>
<!-- 2&#45;&gt;5 -->
<g id="edge5" class="edge">
<title>2&#45;&gt;5</title>
<path fill="none" stroke="#0d3b65" d="M247.01,-311.02C316.02,-298.24 425.96,-277.88 495.95,-264.92"/>
<polygon fill="#0d3b65" stroke="#0d3b65" points="496.78,-268.33 505.98,-263.07 495.51,-261.45 496.78,-268.33"/>
</g>
<!-- 3&#45;&gt;2 -->
<g id="edge6" class="edge">
<title>3&#45;&gt;2</title>
<path fill="none" stroke="#0d3b65" d="M109.62,-263.12C136.16,-272.52 163.86,-286.73 180.83,-298.92"/>
<polygon fill="#0d3b65" stroke="#0d3b65" points="179.07,-301.98 189.08,-305.44 183.41,-296.49 179.07,-301.98"/>
</g>
<!-- 6 -->
<g id="node8" class="node">
<title>6</title>
<ellipse fill="none" stroke="#ff0000" cx="433.74" cy="-170.87" rx="96.33" ry="26.74"/>
<text text-anchor="middle" x="433.74" y="-174.67" font-family="arial" font-size="14.00" fill="#ff0000">NORMAL:6@19&#45;22</text>
<text text-anchor="middle" x="433.74" y="-159.67" font-family="arial" font-size="14.00" fill="#ff0000">cp.exec(link, input);</text>
</g>
<!-- 4&#45;&gt;6 -->
<g id="edge7" class="edge">
<title>4&#45;&gt;6</title>
<path fill="none" stroke="#0d3b65" d="M332.44,-234.78C348.09,-225.07 368.54,-212.36 386.97,-200.92"/>
<polygon fill="#0d3b65" stroke="#0d3b65" points="388.9,-203.84 395.55,-195.59 385.21,-197.89 388.9,-203.84"/>
</g>
<!-- 5&#45;&gt;6 -->
<g id="edge8" class="edge">
<title>5&#45;&gt;6</title>
<path fill="none" stroke="#0d3b65" d="M535.84,-234.78C520.08,-225.07 499.46,-212.36 480.89,-200.92"/>
<polygon fill="#0d3b65" stroke="#0d3b65" points="482.59,-197.86 472.24,-195.59 478.92,-203.82 482.59,-197.86"/>
</g>
<!-- 7 -->
<g id="node9" class="node">
<title>7</title>
<ellipse fill="none" stroke="#0d3b66" cx="433.74" cy="-90" rx="70.69" ry="18"/>
<text text-anchor="middle" x="433.74" y="-86.3" font-family="arial" font-size="14.00" fill="#0d3b66">NORMAL:7@0</text>
</g>
<!-- 6&#45;&gt;7 -->
<g id="edge9" class="edge">
<title>6&#45;&gt;7</title>
<path fill="none" stroke="#0d3b65" d="M433.74,-143.61C433.74,-135.51 433.74,-126.57 433.74,-118.39"/>
<polygon fill="#0d3b65" stroke="#0d3b65" points="437.24,-118.22 433.74,-108.22 430.24,-118.22 437.24,-118.22"/>
</g>
<!-- 7&#45;&gt;8 -->
<g id="edge10" class="edge">
<title>7&#45;&gt;8</title>
<path fill="none" stroke="#0d3b65" d="M433.74,-71.7C433.74,-63.98 433.74,-54.71 433.74,-46.11"/>
<polygon fill="#0d3b65" stroke="#0d3b65" points="437.24,-46.1 433.74,-36.1 430.24,-46.1 437.24,-46.1"/>
</g>
</g>
</svg>
