<?xml version="1.0" encoding="UTF-8" standalone="no"?>
<!DOCTYPE svg PUBLIC "-//W3C//DTD SVG 1.1//EN"
 "http://www.w3.org/Graphics/SVG/1.1/DTD/svg11.dtd">
<!-- Generated by graphviz version 2.43.0 (0)
 -->
<!-- Title: main:3&#45;27 Pages: 1 -->
<svg width="229pt" height="186pt"
 viewBox="36.00 14.40 193.00 171.40" xmlns="http://www.w3.org/2000/svg" xmlns:xlink="http://www.w3.org/1999/xlink">
<g id="graph0" class="graph" transform="scale(1 1) rotate(0) translate(40 167.4)">
<title>main:3&#45;27</title>
<polygon fill="white" stroke="transparent" points="-4,4 -4,-153 153,-153 153,4 -4,4"/>
<text text-anchor="middle" x="74.5" y="-121" font-family="arial" font-size="30.00" fill="#0d3b66">main:3&#45;27</text>
<!-- 0 -->
<g id="node1" class="node">
<title>0</title>
<path fill="none" stroke="#c6ac4d" d="M91.5,-108C91.5,-108 57.5,-108 57.5,-108 51.5,-108 45.5,-102 45.5,-96 45.5,-96 45.5,-84 45.5,-84 45.5,-78 51.5,-72 57.5,-72 57.5,-72 91.5,-72 91.5,-72 97.5,-72 103.5,-78 103.5,-84 103.5,-84 103.5,-96 103.5,-96 103.5,-102 97.5,-108 91.5,-108"/>
<text text-anchor="middle" x="74.5" y="-86.3" font-family="arial" font-size="14.00" fill="#0d3b66">entry:0</text>
</g>
<!-- 1 -->
<g id="node2" class="node">
<title>1</title>
<path fill="none" stroke="#c6ac4d" d="M89.5,-36C89.5,-36 59.5,-36 59.5,-36 53.5,-36 47.5,-30 47.5,-24 47.5,-24 47.5,-12 47.5,-12 47.5,-6 53.5,0 59.5,0 59.5,0 89.5,0 89.5,0 95.5,0 101.5,-6 101.5,-12 101.5,-12 101.5,-24 101.5,-24 101.5,-30 95.5,-36 89.5,-36"/>
<text text-anchor="middle" x="74.5" y="-14.3" font-family="arial" font-size="14.00" fill="#0d3b66">exit:1</text>
</g>
<!-- 0&#45;&gt;1 -->
<g id="edge1" class="edge">
<title>0&#45;&gt;1</title>
<path fill="none" stroke="#0d3b65" d="M74.5,-71.7C74.5,-63.98 74.5,-54.71 74.5,-46.11"/>
<polygon fill="#0d3b65" stroke="#0d3b65" points="78,-46.1 74.5,-36.1 71,-46.1 78,-46.1"/>
</g>
</g>
</svg>
