<?xml version="1.0" encoding="UTF-8" standalone="no"?>
<!DOCTYPE svg PUBLIC "-//W3C//DTD SVG 1.1//EN"
 "http://www.w3.org/Graphics/SVG/1.1/DTD/svg11.dtd">
<!-- Generated by graphviz version 2.43.0 (0)
 -->
<!-- Title: main:3&#45;27 Pages: 1 -->
<svg width="300pt" height="114pt"
 viewBox="36.00 14.40 264.00 99.40" xmlns="http://www.w3.org/2000/svg" xmlns:xlink="http://www.w3.org/1999/xlink">
<g id="graph0" class="graph" transform="scale(1 1) rotate(0) translate(40 95.4)">
<title>main:3&#45;27</title>
<polygon fill="white" stroke="transparent" points="-4,4 -4,-81 224,-81 224,4 -4,4"/>
<text text-anchor="middle" x="110" y="-49" font-family="arial" font-size="30.00" fill="#0d3b66">main:3&#45;27</text>
<!-- 0 -->
<g id="node1" class="node">
<title>0</title>
<path fill="none" stroke="#c6ac4d" d="M46,-36C46,-36 12,-36 12,-36 6,-36 0,-30 0,-24 0,-24 0,-12 0,-12 0,-6 6,0 12,0 12,0 46,0 46,0 52,0 58,-6 58,-12 58,-12 58,-24 58,-24 58,-30 52,-36 46,-36"/>
<text text-anchor="middle" x="29" y="-14.3" font-family="arial" font-size="14.00" fill="#0d3b66">entry:0</text>
</g>
<!-- 1 -->
<g id="node2" class="node">
<title>1</title>
<path fill="none" stroke="#c6ac4d" d="M208,-36C208,-36 178,-36 178,-36 172,-36 166,-30 166,-24 166,-24 166,-12 166,-12 166,-6 172,0 178,0 178,0 208,0 208,0 214,0 220,-6 220,-12 220,-12 220,-24 220,-24 220,-30 214,-36 208,-36"/>
<text text-anchor="middle" x="193" y="-14.3" font-family="arial" font-size="14.00" fill="#0d3b66">exit:1</text>
</g>
</g>
</svg>
